<svg xmlns="http://www.w3.org/2000/svg" xmlns:xlink="http://www.w3.org/1999/xlink" contentStyleType="text/css" data-diagram-type="DESCRIPTION" height="1870px" preserveAspectRatio="none" style="width:1740px;height:1870px;background:#FFFFFF;" version="1.1" viewBox="0 0 1740 1870" width="1740px" zoomAndPan="magnify"><title>Package Structure
Actual Packages in Each Layer (Library - Go)</title><defs/><g><g class="title" data-source-line="4"><text fill="#000000" font-family="Verdana" font-size="22" font-weight="bold" lengthAdjust="spacing" textLength="227.1758" x="752.3971" y="37.1182">Package Structure</text><text fill="#000000" font-family="Verdana" font-size="22" font-weight="bold" lengthAdjust="spacing" textLength="552.1699" x="589.9" y="63.8555">Actual Packages in Each Layer (Library - Go)</text></g><!--cluster API Layer--><g class="cluster" data-entity="API Layer" data-source-line="6" data-uid="ent0002" id="cluster_API Layer"><rect fill="#FFEBCD" height="575.58" rx="2.5" ry="2.5" style="stroke:#000000;stroke-width:1;" width="541" x="774.97" y="86.4746"/><path d="M862.1682,86.4746 L862.1682,96.4893 L852.1682,106.4893 L774.97,106.4893" fill="none" style="stroke:#000000;stroke-width:1;"/><text fill="#000000" font-family="Verdana" font-size="14" font-weight="bold" lengthAdjust="spacing" textLength="77.1982" x="777.97" y="101.5498">API Layer</text></g><!--cluster Infrastructure Layer--><g class="cluster" data-entity="Infrastructure Layer" data-source-line="44" data-uid="ent0011" id="cluster_Infrastructure Layer"><rect fill="#E6F3FF" height="362.19" rx="2.5" ry="2.5" style="stroke:#000000;stroke-width:1;" width="610" x="1124.97" y="711.0546"/><path d="M1295.6966,711.0546 L1295.6966,721.0693 L1285.6966,731.0693 L1124.97,731.0693" fill="none" style="stroke:#000000;stroke-width:1;"/><text fill="#000000" font-family="Verdana" font-size="14" font-weight="bold" lengthAdjust="spacing" textLength="160.7266" x="1127.97" y="726.1298">Infrastructure Layer</text></g><!--cluster Application Layer--><g class="cluster" data-entity="Application Layer" data-source-line="69" data-uid="ent0016" id="cluster_Application Layer"><rect fill="#E8F5E9" height="498.58" rx="2.5" ry="2.5" style="stroke:#000000;stroke-width:1;" width="1012" x="88.97" y="774.2546"/><path d="M235.7503,774.2546 L235.7503,784.2693 L225.7503,794.2693 L88.97,794.2693" fill="none" style="stroke:#000000;stroke-width:1;"/><text fill="#000000" font-family="Verdana" font-size="14" font-weight="bold" lengthAdjust="spacing" textLength="136.7803" x="91.97" y="789.3298">Application Layer</text></g><!--cluster Domain Layer--><g class="cluster" data-entity="Domain Layer" data-source-line="105" data-uid="ent0030" id="cluster_Domain Layer"><rect fill="#FFF9E6" height="141" rx="2.5" ry="2.5" style="stroke:#000000;stroke-width:1;" width="979" x="94.97" y="1321.8346"/><path d="M213.552,1321.8346 L213.552,1331.8493 L203.552,1341.8493 L94.97,1341.8493" fill="none" style="stroke:#000000;stroke-width:1;"/><text fill="#000000" font-family="Verdana" font-size="14" font-weight="bold" lengthAdjust="spacing" textLength="108.582" x="97.97" y="1336.9098">Domain Layer</text></g><!--entity APIFacade--><g class="entity" data-entity="APIFacade" data-source-line="7" data-uid="ent0003" id="entity_APIFacade"><rect fill="#FFFFFF" height="37.0146" rx="2.5" ry="2.5" style="stroke:#000000;stroke-width:1;" width="40.9727" x="852.48" y="219.5646"/><text fill="#000000" font-family="Verdana" font-size="14" lengthAdjust="spacing" textLength="20.9727" x="862.48" y="243.6398">api</text></g><!--entity APIDesktop--><g class="entity" data-entity="APIDesktop" data-source-line="8" data-uid="ent0004" id="entity_APIDesktop"><rect fill="#FFFFFF" height="37.0146" rx="2.5" ry="2.5" style="stroke:#000000;stroke-width:1;" width="163.1582" x="791.39" y="519.8546"/><text fill="#000000" font-family="Verdana" font-size="14" lengthAdjust="spacing" textLength="143.1582" x="801.39" y="543.9298">api/adapter/desktop</text></g><g class="entity" data-entity="GMN5" data-source-line="11" data-uid="ent0006" id="entity_GMN5"><path d="M928.93,122.4746 L928.93,234.0646 L893.63,238.0646 L928.93,242.0646 L928.93,353.665 A0,0 0 0 0 928.93,353.665 L1277.012,353.665 A0,0 0 0 0 1277.012,353.665 L1277.012,132.4746 L1267.012,122.4746 L928.93,122.4746 A0,0 0 0 0 928.93,122.4746" fill="#FFFFFF" style="stroke:#000000;stroke-width:1;"/><path d="M1267.012,122.4746 L1267.012,132.4746 L1277.012,132.4746 L1267.012,122.4746" fill="#FFFFFF" style="stroke:#000000;stroke-width:1;"/><text fill="#000000" font-family="Verdana" font-size="13" font-weight="bold" lengthAdjust="spacing" textLength="100.0518" x="934.93" y="140.5444">Public Facade</text><text fill="#000000" font-family="Verdana" font-size="13" lengthAdjust="spacing" textLength="176.7568" x="934.93" y="156.3438">- Re-exports Domain types</text><text fill="#000000" font-family="Verdana" font-size="13" lengthAdjust="spacing" textLength="198.2119" x="934.93" y="172.1431">- Re-exports Application types</text><text fill="#000000" font-family="Verdana" font-size="13" lengthAdjust="spacing" textLength="224.6943" x="934.93" y="187.9424">- Single entry point for consumers</text><text fill="#000000" font-family="Verdana" font-size="13" lengthAdjust="spacing" textLength="4.5703" x="934.93" y="203.7417">&#160;</text><text fill="#000000" font-family="Verdana" font-size="13" lengthAdjust="spacing" textLength="40.7837" x="934.93" y="219.541">```go</text><text fill="#000000" font-family="Verdana" font-size="13" lengthAdjust="spacing" textLength="78.0698" x="934.93" y="235.3403">package api</text><text fill="#000000" font-family="Verdana" font-size="13" lengthAdjust="spacing" textLength="4.5703" x="934.93" y="251.1396">&#160;</text><text fill="#000000" font-family="Verdana" font-size="13" lengthAdjust="spacing" textLength="137.0078" x="934.93" y="266.939">// Re-exported types</text><text fill="#000000" font-family="Verdana" font-size="13" lengthAdjust="spacing" textLength="254.0903" x="934.93" y="282.7383">type Result[T any] = domerr.Result[T]</text><text fill="#000000" font-family="Verdana" font-size="13" lengthAdjust="spacing" textLength="220.9238" x="934.93" y="298.5376">type Person = valueobject.Person</text><text fill="#000000" font-family="Verdana" font-size="13" lengthAdjust="spacing" textLength="327.082" x="934.93" y="314.3369">type GreetCommand = command.GreetCommand</text><text fill="#000000" font-family="Verdana" font-size="13" lengthAdjust="spacing" textLength="235.3521" x="934.93" y="330.1362">type GreetPort = inbound.GreetPort</text><text fill="#000000" font-family="Verdana" font-size="13" lengthAdjust="spacing" textLength="24.7939" x="934.93" y="345.9355">```</text></g><g class="entity" data-entity="GMN8" data-source-line="28" data-uid="ent0009" id="entity_GMN8"><path d="M989.67,430.6646 L989.67,534.3646 L955.05,538.3646 L989.67,542.3646 L989.67,646.0557 A0,0 0 0 0 989.67,646.0557 L1300.2628,646.0557 A0,0 0 0 0 1300.2628,646.0557 L1300.2628,440.6646 L1290.2628,430.6646 L989.67,430.6646 A0,0 0 0 0 989.67,430.6646" fill="#FFFFFF" style="stroke:#000000;stroke-width:1;"/><path d="M1290.2628,430.6646 L1290.2628,440.6646 L1300.2628,440.6646 L1290.2628,430.6646" fill="#FFFFFF" style="stroke:#000000;stroke-width:1;"/><text fill="#000000" font-family="Verdana" font-size="13" font-weight="bold" lengthAdjust="spacing" textLength="129.1938" x="995.67" y="448.7344">Composition Root</text><text fill="#000000" font-family="Verdana" font-size="13" lengthAdjust="spacing" textLength="172.8022" x="995.67" y="464.5337">- Creates concrete greeter</text><text fill="#000000" font-family="Verdana" font-size="13" lengthAdjust="spacing" textLength="143.0825" x="995.67" y="480.3331">- Wires ConsoleWriter</text><text fill="#000000" font-family="Verdana" font-size="13" lengthAdjust="spacing" textLength="204.9658" x="995.67" y="496.1324">- Ready-to-use implementation</text><text fill="#000000" font-family="Verdana" font-size="13" lengthAdjust="spacing" textLength="4.5703" x="995.67" y="511.9317">&#160;</text><text fill="#000000" font-family="Verdana" font-size="13" lengthAdjust="spacing" textLength="40.7837" x="995.67" y="527.731">```go</text><text fill="#000000" font-family="Verdana" font-size="13" lengthAdjust="spacing" textLength="110.0176" x="995.67" y="543.5303">package desktop</text><text fill="#000000" font-family="Verdana" font-size="13" lengthAdjust="spacing" textLength="4.5703" x="995.67" y="559.3296">&#160;</text><text fill="#000000" font-family="Verdana" font-size="13" lengthAdjust="spacing" textLength="258.9082" x="995.67" y="575.129">func NewGreeter() inbound.GreetPort {</text><text fill="#000000" font-family="Verdana" font-size="13" lengthAdjust="spacing" textLength="197.7422" x="1013.9513" y="590.9283">writer := console.NewWriter()</text><text fill="#000000" font-family="Verdana" font-size="13" lengthAdjust="spacing" textLength="271.3115" x="1013.9513" y="606.7276">return usecase.NewGreetUseCase(writer)</text><text fill="#000000" font-family="Verdana" font-size="13" lengthAdjust="spacing" textLength="8.252" x="995.67" y="622.5269">}</text><text fill="#000000" font-family="Verdana" font-size="13" lengthAdjust="spacing" textLength="24.7939" x="995.67" y="638.3262">```</text></g><!--entity InfraConsole--><g class="entity" data-entity="InfraConsole" data-source-line="45" data-uid="ent0012" id="entity_InfraConsole"><rect fill="#FFFFFF" height="37.0146" rx="2.5" ry="2.5" style="stroke:#000000;stroke-width:1;" width="235.0654" x="1141.43" y="883.6446"/><text fill="#000000" font-family="Verdana" font-size="14" lengthAdjust="spacing" textLength="215.0654" x="1151.43" y="907.7198">infrastructure/adapter/console</text></g><g class="entity" data-entity="GMN13" data-source-line="47" data-uid="ent0014" id="entity_GMN13"><path d="M1411.17,747.0546 L1411.17,898.1446 L1376.71,902.1446 L1411.17,906.1446 L1411.17,1057.2416 A0,0 0 0 0 1411.17,1057.2416 L1718.7603,1057.2416 A0,0 0 0 0 1718.7603,1057.2416 L1718.7603,757.0546 L1708.7603,747.0546 L1411.17,747.0546 A0,0 0 0 0 1411.17,747.0546" fill="#FFFFFF" style="stroke:#000000;stroke-width:1;"/><path d="M1708.7603,747.0546 L1708.7603,757.0546 L1718.7603,757.0546 L1708.7603,747.0546" fill="#FFFFFF" style="stroke:#000000;stroke-width:1;"/><text fill="#000000" font-family="Verdana" font-size="13" font-weight="bold" lengthAdjust="spacing" textLength="174.6177" x="1417.17" y="765.1244">Implements Writer Port</text><text fill="#000000" font-family="Verdana" font-size="13" lengthAdjust="spacing" textLength="126.896" x="1417.17" y="780.9237">- fmt.Println output</text><text fill="#000000" font-family="Verdana" font-size="13" lengthAdjust="spacing" textLength="107.8848" x="1417.17" y="796.7231">- Error wrapping</text><text fill="#000000" font-family="Verdana" font-size="13" lengthAdjust="spacing" textLength="144.4346" x="1417.17" y="812.5224">- Returns Result[Unit]</text><text fill="#000000" font-family="Verdana" font-size="13" lengthAdjust="spacing" textLength="4.5703" x="1417.17" y="828.3217">&#160;</text><text fill="#000000" font-family="Verdana" font-size="13" lengthAdjust="spacing" textLength="40.7837" x="1417.17" y="844.121">```go</text><text fill="#000000" font-family="Verdana" font-size="13" lengthAdjust="spacing" textLength="107.4595" x="1417.17" y="859.9203">package console</text><text fill="#000000" font-family="Verdana" font-size="13" lengthAdjust="spacing" textLength="4.5703" x="1417.17" y="875.7196">&#160;</text><text fill="#000000" font-family="Verdana" font-size="13" lengthAdjust="spacing" textLength="132.2534" x="1417.17" y="891.519">type Writer struct{}</text><text fill="#000000" font-family="Verdana" font-size="13" lengthAdjust="spacing" textLength="4.5703" x="1417.17" y="907.3183">&#160;</text><text fill="#000000" font-family="Verdana" font-size="13" lengthAdjust="spacing" textLength="286.4063" x="1417.17" y="923.1176">func (w *Writer) Write(ctx context.Context,</text><text fill="#000000" font-family="Verdana" font-size="13" lengthAdjust="spacing" textLength="268.3091" x="1435.4512" y="938.9169">msg string) domerr.Result[model.Unit] {</text><text fill="#000000" font-family="Verdana" font-size="13" lengthAdjust="spacing" textLength="170.5742" x="1435.4512" y="954.7162">_, err := fmt.Println(msg)</text><text fill="#000000" font-family="Verdana" font-size="13" lengthAdjust="spacing" textLength="84.627" x="1435.4512" y="970.5155">if err != nil {</text><text fill="#000000" font-family="Verdana" font-size="13" lengthAdjust="spacing" textLength="225.4116" x="1453.7325" y="986.3149">return domerr.Err[model.Unit](...)</text><text fill="#000000" font-family="Verdana" font-size="13" lengthAdjust="spacing" textLength="8.252" x="1435.4512" y="1002.1142">}</text><text fill="#000000" font-family="Verdana" font-size="13" lengthAdjust="spacing" textLength="234.2603" x="1435.4512" y="1017.9135">return domerr.Ok(model.UnitValue)</text><text fill="#000000" font-family="Verdana" font-size="13" lengthAdjust="spacing" textLength="8.252" x="1417.17" y="1033.7128">}</text><text fill="#000000" font-family="Verdana" font-size="13" lengthAdjust="spacing" textLength="24.7939" x="1417.17" y="1049.5121">```</text></g><!--entity AppCommand--><g class="entity" data-entity="AppCommand" data-source-line="70" data-uid="ent0017" id="entity_AppCommand"><rect fill="#FFFFFF" height="37.0146" rx="2.5" ry="2.5" style="stroke:#000000;stroke-width:1;" width="171.3271" x="105.3" y="1178.0346"/><text fill="#000000" font-family="Verdana" font-size="14" lengthAdjust="spacing" textLength="151.3271" x="115.3" y="1202.1098">application/command</text></g><!--entity AppUsecase--><g class="entity" data-entity="AppUsecase" data-source-line="71" data-uid="ent0018" id="entity_AppUsecase"><rect fill="#FFFFFF" height="37.0146" rx="2.5" ry="2.5" style="stroke:#000000;stroke-width:1;" width="158.1406" x="156.9" y="883.6446"/><text fill="#000000" font-family="Verdana" font-size="14" lengthAdjust="spacing" textLength="138.1406" x="166.9" y="907.7198">application/usecase</text></g><!--entity AppPortOut--><g class="entity" data-entity="AppPortOut" data-source-line="72" data-uid="ent0019" id="entity_AppPortOut"><rect fill="#FFFFFF" height="37.0146" rx="2.5" ry="2.5" style="stroke:#000000;stroke-width:1;" width="203.9141" x="554.01" y="1178.0346"/><text fill="#000000" font-family="Verdana" font-size="14" lengthAdjust="spacing" textLength="183.9141" x="564.01" y="1202.1098">application/port/outbound</text></g><!--entity AppPortIn--><g class="entity" data-entity="AppPortIn" data-source-line="73" data-uid="ent0020" id="entity_AppPortIn"><rect fill="#FFFFFF" height="37.0146" rx="2.5" ry="2.5" style="stroke:#000000;stroke-width:1;" width="193.7422" x="875.1" y="883.6446"/><text fill="#000000" font-family="Verdana" font-size="14" lengthAdjust="spacing" textLength="173.7422" x="885.1" y="907.7198">application/port/inbound</text></g><g class="entity" data-entity="GMN21" data-source-line="76" data-uid="ent0022" id="entity_GMN21"><path d="M311.18,1175.7446 L311.18,1192.5446 L276.72,1196.5446 L311.18,1200.5446 L311.18,1217.3432 A0,0 0 0 0 311.18,1217.3432 L518.763,1217.3432 A0,0 0 0 0 518.763,1217.3432 L518.763,1185.7446 L508.763,1175.7446 L311.18,1175.7446 A0,0 0 0 0 311.18,1175.7446" fill="#FFFFFF" style="stroke:#000000;stroke-width:1;"/><path d="M508.763,1175.7446 L508.763,1185.7446 L518.763,1185.7446 L508.763,1175.7446" fill="#FFFFFF" style="stroke:#000000;stroke-width:1;"/><text fill="#000000" font-family="Verdana" font-size="13" font-weight="bold" lengthAdjust="spacing" textLength="108.0244" x="317.18" y="1193.8144">Command DTO</text><text fill="#000000" font-family="Verdana" font-size="13" lengthAdjust="spacing" textLength="186.583" x="317.18" y="1209.6138">Immutable struct with name</text></g><g class="entity" data-entity="GMN24" data-source-line="81" data-uid="ent0025" id="entity_GMN24"><path d="M350.53,810.2546 L350.53,898.1446 L315.33,902.1446 L350.53,906.1446 L350.53,994.0471 A0,0 0 0 0 350.53,994.0471 L779.405,994.0471 A0,0 0 0 0 779.405,994.0471 L779.405,820.2546 L769.405,810.2546 L350.53,810.2546 A0,0 0 0 0 350.53,810.2546" fill="#FFFFFF" style="stroke:#000000;stroke-width:1;"/><path d="M769.405,810.2546 L769.405,820.2546 L779.405,820.2546 L769.405,810.2546" fill="#FFFFFF" style="stroke:#000000;stroke-width:1;"/><text fill="#000000" font-family="Verdana" font-size="13" font-weight="bold" lengthAdjust="spacing" textLength="188.0493" x="356.53" y="828.3244">Use Case Implementation</text><text fill="#000000" font-family="Verdana" font-size="13" lengthAdjust="spacing" textLength="40.7837" x="356.53" y="844.1237">```go</text><text fill="#000000" font-family="Verdana" font-size="13" lengthAdjust="spacing" textLength="110.4365" x="356.53" y="859.9231">package usecase</text><text fill="#000000" font-family="Verdana" font-size="13" lengthAdjust="spacing" textLength="4.5703" x="356.53" y="875.7224">&#160;</text><text fill="#000000" font-family="Verdana" font-size="13" lengthAdjust="spacing" textLength="179.8608" x="356.53" y="891.5217">type GreetUseCase struct {</text><text fill="#000000" font-family="Verdana" font-size="13" lengthAdjust="spacing" textLength="176.0332" x="374.8113" y="907.321">writer outbound.WriterPort</text><text fill="#000000" font-family="Verdana" font-size="13" lengthAdjust="spacing" textLength="8.252" x="356.53" y="923.1203">}</text><text fill="#000000" font-family="Verdana" font-size="13" lengthAdjust="spacing" textLength="4.5703" x="356.53" y="938.9196">&#160;</text><text fill="#000000" font-family="Verdana" font-size="13" lengthAdjust="spacing" textLength="358.7441" x="356.53" y="954.719">func (uc *GreetUseCase) Execute(ctx context.Context,</text><text fill="#000000" font-family="Verdana" font-size="13" lengthAdjust="spacing" textLength="389.5938" x="374.8113" y="970.5183">cmd command.GreetCommand) domerr.Result[model.Unit]</text><text fill="#000000" font-family="Verdana" font-size="13" lengthAdjust="spacing" textLength="24.7939" x="356.53" y="986.3176">```</text></g><g class="entity" data-entity="GMN27" data-source-line="95" data-uid="ent0028" id="entity_GMN27"><path d="M792.48,1136.2446 L792.48,1192.5446 L758.22,1196.5446 L792.48,1200.5446 L792.48,1256.8398 A0,0 0 0 0 792.48,1256.8398 L1085.4644,1256.8398 A0,0 0 0 0 1085.4644,1256.8398 L1085.4644,1146.2446 L1075.4644,1136.2446 L792.48,1136.2446 A0,0 0 0 0 792.48,1136.2446" fill="#FFFFFF" style="stroke:#000000;stroke-width:1;"/><path d="M1075.4644,1136.2446 L1075.4644,1146.2446 L1085.4644,1146.2446 L1075.4644,1136.2446" fill="#FFFFFF" style="stroke:#000000;stroke-width:1;"/><text fill="#000000" font-family="Verdana" font-size="13" font-weight="bold" lengthAdjust="spacing" textLength="158.063" x="798.48" y="1154.3144">Output Port Interface</text><text fill="#000000" font-family="Verdana" font-size="13" lengthAdjust="spacing" textLength="40.7837" x="798.48" y="1170.1138">```go</text><text fill="#000000" font-family="Verdana" font-size="13" lengthAdjust="spacing" textLength="174.5098" x="798.48" y="1185.9131">type WriterPort interface {</text><text fill="#000000" font-family="Verdana" font-size="13" lengthAdjust="spacing" textLength="253.7031" x="816.7613" y="1201.7124">Write(ctx context.Context, msg string)</text><text fill="#000000" font-family="Verdana" font-size="13" lengthAdjust="spacing" textLength="175.5889" x="835.0425" y="1217.5117">domerr.Result[model.Unit]</text><text fill="#000000" font-family="Verdana" font-size="13" lengthAdjust="spacing" textLength="8.252" x="798.48" y="1233.311">}</text><text fill="#000000" font-family="Verdana" font-size="13" lengthAdjust="spacing" textLength="24.7939" x="798.48" y="1249.1103">```</text></g><!--entity DomainError--><g class="entity" data-entity="DomainError" data-source-line="106" data-uid="ent0031" id="entity_DomainError"><rect fill="#FFFFFF" height="37.0146" rx="2.5" ry="2.5" style="stroke:#000000;stroke-width:1;" width="113.0645" x="723.44" y="1383.8246"/><text fill="#000000" font-family="Verdana" font-size="14" lengthAdjust="spacing" textLength="93.0645" x="733.44" y="1407.8998">domain/error</text></g><!--entity DomainPerson--><g class="entity" data-entity="DomainPerson" data-source-line="107" data-uid="ent0032" id="entity_DomainPerson"><rect fill="#FFFFFF" height="37.0146" rx="2.5" ry="2.5" style="stroke:#000000;stroke-width:1;" width="159.2275" x="111.35" y="1383.8246"/><text fill="#000000" font-family="Verdana" font-size="14" lengthAdjust="spacing" textLength="139.2275" x="121.35" y="1407.8998">domain/valueobject</text></g><!--entity DomainUnit--><g class="entity" data-entity="DomainUnit" data-source-line="108" data-uid="ent0033" id="entity_DomainUnit"><rect fill="#FFFFFF" height="37.0146" rx="2.5" ry="2.5" style="stroke:#000000;stroke-width:1;" width="145.3301" x="543.3" y="1383.8246"/><text fill="#000000" font-family="Verdana" font-size="14" lengthAdjust="spacing" textLength="125.3301" x="553.3" y="1407.8998">application/model</text></g><g class="entity" data-entity="GMN34" data-source-line="111" data-uid="ent0035" id="entity_GMN34"><path d="M871.54,1357.8346 L871.54,1398.3346 L836.7,1402.3346 L871.54,1406.3346 L871.54,1446.8312 A0,0 0 0 0 871.54,1446.8312 L1058.4043,1446.8312 A0,0 0 0 0 1058.4043,1446.8312 L1058.4043,1367.8346 L1048.4043,1357.8346 L871.54,1357.8346 A0,0 0 0 0 871.54,1357.8346" fill="#FFFFFF" style="stroke:#000000;stroke-width:1;"/><path d="M1048.4043,1357.8346 L1048.4043,1367.8346 L1058.4043,1367.8346 L1048.4043,1357.8346" fill="#FFFFFF" style="stroke:#000000;stroke-width:1;"/><text fill="#000000" font-family="Verdana" font-size="13" font-weight="bold" lengthAdjust="spacing" textLength="150.6934" x="877.54" y="1375.9044">Error Types + Result</text><text fill="#000000" font-family="Verdana" font-size="13" lengthAdjust="spacing" textLength="139.4136" x="877.54" y="1391.7038">- ErrorKind constants</text><text fill="#000000" font-family="Verdana" font-size="13" lengthAdjust="spacing" textLength="116.9111" x="877.54" y="1407.5031">- ErrorType struct</text><text fill="#000000" font-family="Verdana" font-size="13" lengthAdjust="spacing" textLength="156.2666" x="877.54" y="1423.3024">- Result[T] generic type</text><text fill="#000000" font-family="Verdana" font-size="13" lengthAdjust="spacing" textLength="165.8643" x="877.54" y="1439.1017">- Ok(), Err() constructors</text></g><g class="entity" data-entity="GMN37" data-source-line="119" data-uid="ent0038" id="entity_GMN37"><path d="M305.25,1365.7346 L305.25,1398.3346 L270.7,1402.3346 L305.25,1406.3346 L305.25,1438.9319 A0,0 0 0 0 305.25,1438.9319 L508.6816,1438.9319 A0,0 0 0 0 508.6816,1438.9319 L508.6816,1375.7346 L498.6816,1365.7346 L305.25,1365.7346 A0,0 0 0 0 305.25,1365.7346" fill="#FFFFFF" style="stroke:#000000;stroke-width:1;"/><path d="M498.6816,1365.7346 L498.6816,1375.7346 L508.6816,1375.7346 L498.6816,1365.7346" fill="#FFFFFF" style="stroke:#000000;stroke-width:1;"/><text fill="#000000" font-family="Verdana" font-size="13" font-weight="bold" lengthAdjust="spacing" textLength="92.9741" x="311.25" y="1383.8044">Value Object</text><text fill="#000000" font-family="Verdana" font-size="13" lengthAdjust="spacing" textLength="182.4316" x="311.25" y="1399.6038">- Person struct (immutable)</text><text fill="#000000" font-family="Verdana" font-size="13" lengthAdjust="spacing" textLength="177.2646" x="311.25" y="1415.4031">- CreatePerson() validation</text><text fill="#000000" font-family="Verdana" font-size="13" lengthAdjust="spacing" textLength="180.0195" x="311.25" y="1431.2024">- MaxNameLength constant</text></g><!--link APIFacade to APIDesktop--><g class="link" data-entity-1="APIFacade" data-entity-2="APIDesktop" data-source-line="127" data-uid="lnk40" id="link_APIFacade_APIDesktop"><path d="M872.97,256.8346 C872.97,309.8846 872.97,460.7546 872.97,513.6846" fill="none" id="APIFacade-to-APIDesktop" style="stroke:#000000;stroke-width:1;"/><polygon fill="#000000" points="872.97,519.6846,876.97,510.6846,872.97,514.6846,868.97,510.6846,872.97,519.6846" style="stroke:#000000;stroke-width:1;"/><text fill="#000000" font-family="Verdana" font-size="13" lengthAdjust="spacing" textLength="111.4077" x="873.97" y="397.7344">provides desktop</text></g><!--link APIDesktop to InfraConsole--><g class="link" data-entity-1="APIDesktop" data-entity-2="InfraConsole" data-source-line="128" data-uid="lnk41" id="link_APIDesktop_InfraConsole"><path d="M881.47,557.2146 C895.94,585.6346 928.11,640.9146 971.97,670.0546 C1021.26,702.8046 1051.27,670.9246 1100.97,703.0546 C1174.67,750.7046 1226.6494,839.0883 1247.2494,878.1183" fill="none" id="APIDesktop-to-InfraConsole" style="stroke:#000000;stroke-width:1;"/><polygon fill="#000000" points="1250.05,883.4246,1249.3865,873.5981,1247.7161,879.0027,1242.3115,877.3323,1250.05,883.4246" style="stroke:#000000;stroke-width:1;"/><text fill="#000000" font-family="Verdana" font-size="13" lengthAdjust="spacing" textLength="47.5122" x="1084.86" y="692.1244">creates</text></g><!--link APIDesktop to AppUsecase--><g class="link" data-entity-1="APIDesktop" data-entity-2="AppUsecase" data-source-line="129" data-uid="lnk42" id="link_APIDesktop_AppUsecase"><path d="M791.08,544.1346 C676.15,554.8646 466.16,589.7546 332.97,703.0546 C274.93,752.4346 249.8546,838.8972 240.9646,877.5572" fill="none" id="APIDesktop-to-AppUsecase" style="stroke:#000000;stroke-width:1;"/><polygon fill="#000000" points="239.62,883.4046,245.5352,875.5299,240.7405,878.5318,237.7387,873.7371,239.62,883.4046" style="stroke:#000000;stroke-width:1;"/><text fill="#000000" font-family="Verdana" font-size="13" lengthAdjust="spacing" textLength="47.5122" x="357.62" y="692.1244">creates</text></g><!--link AppUsecase to AppPortOut--><g class="link" data-entity-1="AppUsecase" data-entity-2="AppPortOut" data-source-line="131" data-uid="lnk43" id="link_AppUsecase_AppPortOut"><path d="M240.61,921.1446 C250.86,957.2146 278.94,1038.5946 332.97,1081.2446 C406.33,1139.1646 448.54,1103.1546 535.97,1136.2446 C566.72,1147.8846 594.8569,1161.9205 618.5969,1174.7005" fill="none" id="AppUsecase-to-AppPortOut" style="stroke:#000000;stroke-width:1;"/><polygon fill="#000000" points="623.88,1177.5446,617.8514,1169.7564,619.4774,1175.1746,614.0593,1176.8006,623.88,1177.5446" style="stroke:#000000;stroke-width:1;"/><text fill="#000000" font-family="Verdana" font-size="13" lengthAdjust="spacing" textLength="75.4736" x="374.86" y="1103.3144">depends on</text></g><!--link AppUsecase to AppCommand--><g class="link" data-entity-1="AppUsecase" data-entity-2="AppCommand" data-source-line="132" data-uid="lnk44" id="link_AppUsecase_AppCommand"><path d="M233.22,920.9946 C225.19,973.1946 202.7125,1119.2444 194.6525,1171.6244" fill="none" id="AppUsecase-to-AppCommand" style="stroke:#000000;stroke-width:1;"/><polygon fill="#000000" points="193.74,1177.5546,199.0622,1169.2676,194.5004,1172.6128,191.1553,1168.051,193.74,1177.5546" style="stroke:#000000;stroke-width:1;"/><text fill="#000000" font-family="Verdana" font-size="13" lengthAdjust="spacing" textLength="53.5869" x="207.81" y="1103.3144">receives</text></g><!--link AppUsecase to DomainPerson--><g class="link" data-entity-1="AppUsecase" data-entity-2="DomainPerson" data-source-line="133" data-uid="lnk45" id="link_AppUsecase_DomainPerson"><path d="M212.43,921.1046 C168.24,956.4946 74.11,1040.2146 38.97,1136.2446 C16.88,1196.5946 11,1222.9746 38.97,1280.8346 C62.34,1329.1946 110.2826,1361.2761 147.1126,1380.6961" fill="none" id="AppUsecase-to-DomainPerson" style="stroke:#000000;stroke-width:1;"/><polygon fill="#000000" points="152.42,1383.4946,146.3246,1375.7586,147.9972,1381.1625,142.5932,1382.8351,152.42,1383.4946" style="stroke:#000000;stroke-width:1;"/><text fill="#000000" font-family="Verdana" font-size="13" lengthAdjust="spacing" textLength="47.5122" x="39.97" y="1202.1144">creates</text></g><!--link InfraConsole to AppPortOut--><g class="link" data-entity-1="InfraConsole" data-entity-2="AppPortOut" data-source-line="135" data-uid="lnk46" id="link_InfraConsole_AppPortOut"><path d="M1249.01,920.8746 C1227.36,957.5846 1172.19,1041.7646 1100.97,1081.2446 C972.45,1152.4746 914.69,1090.7646 774.97,1136.2446 C743.14,1146.6046 714.4048,1161.2871 690.9448,1174.6371" fill="none" id="InfraConsole-to-AppPortOut" style="stroke:#000000;stroke-width:1;"/><polygon fill="#000000" points="685.73,1177.6046,695.5305,1176.6299,690.0757,1175.1317,691.5738,1169.6768,685.73,1177.6046" style="stroke:#000000;stroke-width:1;"/><text fill="#000000" font-family="Verdana" font-size="13" lengthAdjust="spacing" textLength="76.1338" x="1079.57" y="1103.3144">implements</text></g><!--link InfraConsole to DomainError--><g class="link" data-entity-1="InfraConsole" data-entity-2="DomainError" data-source-line="136" data-uid="lnk47" id="link_InfraConsole_DomainError"><path d="M1257.53,921.0946 C1251.54,982.7846 1222.84,1187.4746 1100.97,1280.8346 C1013.05,1348.1946 951.12,1260.6646 853.97,1313.8346 C824.47,1329.9846 804.7136,1357.7738 792.6236,1378.3138" fill="none" id="InfraConsole-to-DomainError" style="stroke:#000000;stroke-width:1;"/><polygon fill="#000000" points="789.58,1383.4846,797.5925,1377.7575,792.1163,1379.1756,790.6982,1373.6994,789.58,1383.4846" style="stroke:#000000;stroke-width:1;"/><text fill="#000000" font-family="Verdana" font-size="13" lengthAdjust="spacing" textLength="29.5166" x="1204.75" y="1202.1144">uses</text></g><!--link AppCommand to DomainPerson--><g class="link" data-entity-1="AppCommand" data-entity-2="DomainPerson" data-source-line="138" data-uid="lnk48" id="link_AppCommand_DomainPerson"><path d="M190.97,1215.2646 C190.97,1253.8146 190.97,1338.8646 190.97,1377.5046" fill="none" id="AppCommand-to-DomainPerson" style="stroke:#000000;stroke-width:1;"/><polygon fill="#000000" points="190.97,1383.5046,194.97,1374.5046,190.97,1378.5046,186.97,1374.5046,190.97,1383.5046" style="stroke:#000000;stroke-width:1;"/><text fill="#000000" font-family="Verdana" font-size="13" lengthAdjust="spacing" textLength="75.7656" x="191.97" y="1302.9044">validates to</text></g><!--link AppPortOut to DomainError--><g class="link" data-entity-1="AppPortOut" data-entity-2="DomainError" data-source-line="139" data-uid="lnk49" id="link_AppPortOut_DomainError"><path d="M666.75,1215.2646 C690.21,1253.8146 742.4913,1339.7388 766.0013,1378.3788" fill="none" id="AppPortOut-to-DomainError" style="stroke:#000000;stroke-width:1;"/><polygon fill="#000000" points="769.12,1383.5046,767.8591,1373.7368,766.5211,1379.2331,761.0247,1377.8951,769.12,1383.5046" style="stroke:#000000;stroke-width:1;"/><text fill="#000000" font-family="Verdana" font-size="13" lengthAdjust="spacing" textLength="74.5596" x="722.69" y="1302.9044">uses Result</text></g><!--link AppPortOut to DomainUnit--><g class="link" data-entity-1="AppPortOut" data-entity-2="DomainUnit" data-source-line="140" data-uid="lnk50" id="link_AppPortOut_DomainUnit"><path d="M652.49,1215.2646 C644.92,1253.8146 628.205,1338.9768 620.625,1377.6168" fill="none" id="AppPortOut-to-DomainUnit" style="stroke:#000000;stroke-width:1;"/><polygon fill="#000000" points="619.47,1383.5046,625.1277,1375.4429,620.4325,1378.5981,617.2773,1373.9029,619.47,1383.5046" style="stroke:#000000;stroke-width:1;"/><text fill="#000000" font-family="Verdana" font-size="13" lengthAdjust="spacing" textLength="60.5186" x="638.17" y="1302.9044">uses Unit</text></g><g class="legend" data-source-line="142"><rect fill="none" height="384.3223" rx="7.5" ry="7.5" style="stroke:#000000;stroke-width:1;" width="514" x="608.985" y="1472.8346"/><text fill="#000000" font-family="Verdana" font-size="14" font-weight="bold" lengthAdjust="spacing" textLength="224.6494" x="613.985" y="1491.9098">Package Naming Convention</text><text fill="#000000" font-family="Verdana" font-size="14" lengthAdjust="spacing" textLength="504" x="613.985" y="1508.9245">&#9552;&#9552;&#9552;&#9552;&#9552;&#9552;&#9552;&#9552;&#9552;&#9552;&#9552;&#9552;&#9552;&#9552;&#9552;&#9552;&#9552;&#9552;&#9552;&#9552;&#9552;&#9552;&#9552;&#9552;&#9552;&#9552;&#9552;&#9552;&#9552;&#9552;&#9552;&#9552;&#9552;&#9552;&#9552;&#9552;</text><text fill="#000000" font-family="Verdana" font-size="14" lengthAdjust="spacing" textLength="302.3057" x="613.985" y="1525.9391">Go uses lowercase, slash-separated paths:</text><text fill="#000000" font-family="Verdana" font-size="14" lengthAdjust="spacing" textLength="233.1602" x="613.985" y="1542.9538">&#8226; parent/child/grandchild pattern</text><text fill="#000000" font-family="Verdana" font-size="14" lengthAdjust="spacing" textLength="270.2998" x="613.985" y="1559.9684">&#8226; snake_case for multi-word packages</text><text fill="#000000" font-family="Verdana" font-size="14" lengthAdjust="spacing" textLength="4.9219" x="613.985" y="1576.983">&#160;</text><text fill="#000000" font-family="Verdana" font-size="14" font-weight="bold" lengthAdjust="spacing" textLength="72.5977" x="613.985" y="1593.9977">Example:</text><text fill="#000000" font-family="Verdana" font-size="14" lengthAdjust="spacing" textLength="220.9648" x="613.985" y="1611.0123">&#8226; Package: domain/valueobject</text><text fill="#000000" font-family="Verdana" font-size="14" lengthAdjust="spacing" textLength="263.4912" x="613.985" y="1628.027">&#8226; File: domain/valueobject/person.go</text><text fill="#000000" font-family="Verdana" font-size="14" lengthAdjust="spacing" textLength="105.2188" x="613.985" y="1645.0416">&#8226; Type: Person</text><text fill="#000000" font-family="Verdana" font-size="14" lengthAdjust="spacing" textLength="4.9219" x="613.985" y="1662.0563">&#160;</text><text fill="#000000" font-family="Verdana" font-size="14" font-weight="bold" lengthAdjust="spacing" textLength="236.0928" x="613.985" y="1679.0709">Dependency Injection Pattern</text><text fill="#000000" font-family="Verdana" font-size="14" lengthAdjust="spacing" textLength="504" x="613.985" y="1696.0856">&#9552;&#9552;&#9552;&#9552;&#9552;&#9552;&#9552;&#9552;&#9552;&#9552;&#9552;&#9552;&#9552;&#9552;&#9552;&#9552;&#9552;&#9552;&#9552;&#9552;&#9552;&#9552;&#9552;&#9552;&#9552;&#9552;&#9552;&#9552;&#9552;&#9552;&#9552;&#9552;&#9552;&#9552;&#9552;&#9552;</text><text fill="#000000" font-family="Verdana" font-size="14" lengthAdjust="spacing" textLength="301.7451" x="613.985" y="1713.1002">&#8226; Interfaces defined in consumer packages</text><text fill="#000000" font-family="Verdana" font-size="14" lengthAdjust="spacing" textLength="258.9316" x="613.985" y="1730.1149">&#8226; Constructor injection via NewXxx()</text><text fill="#000000" font-family="Verdana" font-size="14" lengthAdjust="spacing" textLength="292.2842" x="613.985" y="1747.1295">&#8226; api/adapter/desktop - Composition root</text><text fill="#000000" font-family="Verdana" font-size="14" lengthAdjust="spacing" textLength="4.9219" x="613.985" y="1764.1442">&#160;</text><text fill="#000000" font-family="Verdana" font-size="14" font-weight="bold" lengthAdjust="spacing" textLength="115.0078" x="613.985" y="1781.1588">Error Handling</text><text fill="#000000" font-family="Verdana" font-size="14" lengthAdjust="spacing" textLength="504" x="613.985" y="1798.1735">&#9552;&#9552;&#9552;&#9552;&#9552;&#9552;&#9552;&#9552;&#9552;&#9552;&#9552;&#9552;&#9552;&#9552;&#9552;&#9552;&#9552;&#9552;&#9552;&#9552;&#9552;&#9552;&#9552;&#9552;&#9552;&#9552;&#9552;&#9552;&#9552;&#9552;&#9552;&#9552;&#9552;&#9552;&#9552;&#9552;</text><text fill="#000000" font-family="Verdana" font-size="14" lengthAdjust="spacing" textLength="242.2725" x="613.985" y="1815.1881">&#8226; Result[T] monad (not Go errors)</text><text fill="#000000" font-family="Verdana" font-size="14" lengthAdjust="spacing" textLength="223.0498" x="613.985" y="1832.2028">&#8226; Ok(value) / Err(error) pattern</text><text fill="#000000" font-family="Verdana" font-size="14" lengthAdjust="spacing" textLength="212.9941" x="613.985" y="1849.2174">&#8226; No panics across boundaries</text></g><!--SRC=[nLVTRjis5BxNKvnc5xEpsBuOLgm6CY1px2nermJvMGTiGSj8jCr58WMIYcqK0VO8kzaBxD7s93k7f2JwB-tL6WImfFEHv__ZuGixvmM7CcT29kP1o99fLa2gYb99BksrNUKSD4yjaxES9uaL5ZzSilI1pJXSMrsbjjByTtc2lool9GQ4X35Bv_26hRY6pXjnhvbUGG_EL3T9fgY5my79vRa77C1Naydunz4fV4oWLGy7h1G7m0mWSi9Ibl4jyO1bhBHS3p9k7gmgQ_YfVqrmWLGMdH2pkGKrNTiAuF3mihhFHGh-s-6X-zg3AzxZor9fQ-1K5HWUiAkIcstfILdYScQ5MeTS2ueOe9deTga4cZjL6esNfYguDed3VVZmOQRSKnbYYYvvqM3Ggk5Pj3SzeSXKkVtj1fXStS4nP0etrVtwyrsBl4HbQDinFBAyukh-3yncttziGMUQSpjIHS5aXj3KF_NZpnlWIpGBaKBUgwf6qhVQBVpbk1V5VcSEwlpu98mefqQuA5ufPPiyZ3Hd5ki9uvPgZdlCI17NGVnEQ1IECAWgv- -qQ2LNd6MhdbMzod0GHPbZeKlhyhGlz5bRCW3JIgRmbY_ElBvETzjLLwp-R-5Km_3O9HXjwUDIRq-dsw3GWKfBG8jIPXp4xNLh-0ZVEtuJ3t_Q5SUdfdFE9JwOklsQ9Xg_d7mxcMmsaLW3DmqJB7KDu_OBOTpAreQGydLU1zI0zn8e84tMfWMMcCQQpoMeofQL3OAnrjW42ytA4lkZIHM5nTGrVIk5lTkNes1qqbPZqE_z-_WKPQ-pW4ClxNfK9xLBsi7ofUsF_EzHavt2p6WNjAkxqKw5odZUTtP5ENz_18YXd4VkTd2NDk5YwY0lZa6AF5eQ5KFGX869rNJw_NwxpLEoUz75GwTTymkrzsSLJqnPJULyF_bk_6gRVXla8722vzUoR5bX3pvKUOs_zQ_xySHp0omMrsJrAggg2rSzpwqAdHalEfSxM2UsEh2E8xpJcujGkkT5KLbsZyJjwmaMmiv1OjYUvxFOFzePtu1w6ixNc2TesIxh4AnaWsG3CzJ6RF5D7Qw-B_E6VzUwe4hXCDwj2-CbJwjFjKDQP3lFWMUQu_EuFyugnUh24OGZ4AGQT6FAKhuLgQZN7LBKo2Wg-viyRkwrBdpUbqyqKfWCsX5cychyShE7CWSQS68-Lw5-bMF2dSZed8xmpOczfn6SwH6UdDWE_hfkYhvdv1kQBk2RGC4DZplXQo4pnxiu15eJIsXLgCs6oiFy0JCkkSQvYl8MX4XNtIDQYOUfsuyMAcsUBPSDxybantHmuIBKc1h6dD0f7L4tSdTjaF0er8z15fcV1hpyPxPyYqbzm-KCExvsToFlNyCfB_43bwd0U7LIJbNOCvm_kCfgPalePMeXUpz4amuCeTJgKU2KqKmQaRHU41-sk2JryyykP4iw4Iw9laR0q748p9m31j3ntT2Q58SqztFnICgtWN5QOlLhvkyqe9d5p6vmLAA8HcBqJjLcxJ4Wv1DZQrKIwTk_QwZL_M3ge1hhkoddCwg6UsMjAX9tUGZyZQM31K23w2DwLZFzlt__zR_zexepvOtDrO9hojOHc9oPETOdtUle5b4oEpT3CktFV_15ex63T2xoR33J65ttI22iQXbGHh87_jubdoum1SPCz1PAP_NXvQuoI2HBHfaTUiznOOZD4BPvBI0c8jyf7fGkhNr7_GGaeXc65lVQcZvSOSVG6XfcBhtXNoBsP6LpU563JuN4UEFfKD_usd1vzAXbG8JLBZmAHhUENvTBTsyWu8vBBl5PT6FIU6CAIN05_XEcCiTw_5A1Q4-1GacMGGVvawhJdO6czWkF0vVpBWpSeU2atOtgUwlmWnIf0PPgPGouUOTffDy42y1tPF8V]--></g></svg>