<svg xmlns="http://www.w3.org/2000/svg" xmlns:xlink="http://www.w3.org/1999/xlink" contentStyleType="text/css" data-diagram-type="CLASS" height="2277px" preserveAspectRatio="none" style="width:1110px;height:2277px;background:#FFFFFF;" version="1.1" viewBox="0 0 1110 2277" width="1110px" zoomAndPan="magnify"><title>Generic-Based Static Dispatch
Compile-Time Binding in Go (Library)</title><defs/><g><g class="title" data-source-line="4"><text fill="#000000" font-family="Verdana" font-size="22" font-weight="bold" lengthAdjust="spacing" textLength="372.6143" x="364.1929" y="37.1182">Generic-Based Static Dispatch</text><text fill="#000000" font-family="Verdana" font-size="22" font-weight="bold" lengthAdjust="spacing" textLength="462.1396" x="319.4302" y="63.8555">Compile-Time Binding in Go (Library)</text></g><!--cluster Infrastructure Layer--><g class="cluster" data-entity="Infrastructure Layer" data-source-line="6" data-uid="ent0002" id="cluster_Infrastructure Layer"><path d="M13.5,770.1446 L175.2266,770.1446 A3.75,3.75 0 0 1 177.7266,772.6446 L184.7266,793.1593 L276.5,793.1593 A2.5,2.5 0 0 1 279,795.6593 L279,928.2946 A2.5,2.5 0 0 1 276.5,930.7946 L13.5,930.7946 A2.5,2.5 0 0 1 11,928.2946 L11,772.6446 A2.5,2.5 0 0 1 13.5,770.1446" fill="#E6F3FF" style="stroke:#000000;stroke-width:1;"/><line style="stroke:#000000;stroke-width:1;" x1="11" x2="184.7266" y1="793.1593" y2="793.1593"/><text fill="#000000" font-family="Verdana" font-size="14" font-weight="bold" lengthAdjust="spacing" textLength="160.7266" x="15" y="786.2198">Infrastructure Layer</text></g><!--cluster Application Layer--><g class="cluster" data-entity="Application Layer" data-source-line="15" data-uid="ent0004" id="cluster_Application Layer"><path d="M305.5,753.1346 L443.2803,753.1346 A3.75,3.75 0 0 1 445.7803,755.6346 L452.7803,776.1493 L608.5,776.1493 A2.5,2.5 0 0 1 611,778.6493 L611,1294.3246 A2.5,2.5 0 0 1 608.5,1296.8246 L305.5,1296.8246 A2.5,2.5 0 0 1 303,1294.3246 L303,755.6346 A2.5,2.5 0 0 1 305.5,753.1346" fill="#E8F5E9" style="stroke:#000000;stroke-width:1;"/><line style="stroke:#000000;stroke-width:1;" x1="303" x2="452.7803" y1="776.1493" y2="776.1493"/><text fill="#000000" font-family="Verdana" font-size="14" font-weight="bold" lengthAdjust="spacing" textLength="136.7803" x="307" y="769.2098">Application Layer</text></g><!--cluster API Layer--><g class="cluster" data-entity="API Layer" data-source-line="34" data-uid="ent0007" id="cluster_API Layer"><path d="M176.5,85.4746 L254.6982,85.4746 A3.75,3.75 0 0 1 257.1982,87.9746 L264.1982,108.4893 L425.5,108.4893 A2.5,2.5 0 0 1 428,110.9893 L428,602.9746 A2.5,2.5 0 0 1 425.5,605.4746 L176.5,605.4746 A2.5,2.5 0 0 1 174,602.9746 L174,87.9746 A2.5,2.5 0 0 1 176.5,85.4746" fill="#FFEBCD" style="stroke:#000000;stroke-width:1;"/><line style="stroke:#000000;stroke-width:1;" x1="174" x2="264.1982" y1="108.4893" y2="108.4893"/><text fill="#000000" font-family="Verdana" font-size="14" font-weight="bold" lengthAdjust="spacing" textLength="77.1982" x="178" y="101.5498">API Layer</text></g><!--class CW--><g class="entity" data-entity="CW" data-source-line="7" data-uid="ent0003" id="entity_CW"><rect fill="#FFFFFF" height="108.6426" rx="2.5" ry="2.5" style="stroke:#000000;stroke-width:1;" width="235.9414" x="27.03" y="806.1446"/><ellipse cx="90.6477" cy="826.9439" fill="#FFFFFF" rx="9" ry="9" style="stroke:#000000;stroke-width:1;"/><path d="M93.1208,833.087 Q92.5398,833.3858 91.9006,833.5352 Q91.2614,833.6846 90.5559,833.6846 Q88.049,833.6846 86.7292,832.0328 Q85.4094,830.3809 85.4094,827.2598 Q85.4094,824.1304 86.7292,822.4786 Q88.049,820.8267 90.5559,820.8267 Q91.2614,820.8267 91.9089,820.9762 Q92.5564,821.1256 93.1208,821.4244 L93.1208,824.1471 Q92.49,823.566 91.8965,823.2962 Q91.3029,823.0264 90.6721,823.0264 Q89.3274,823.0264 88.6425,824.0931 Q87.9577,825.1597 87.9577,827.2598 Q87.9577,829.3516 88.6425,830.4183 Q89.3274,831.4849 90.6721,831.4849 Q91.3029,831.4849 91.8965,831.2152 Q92.49,830.9454 93.1208,830.3643 Z " fill="#000000"/><text fill="#000000" font-family="Verdana" font-size="12" font-style="italic" lengthAdjust="spacing" textLength="50.1445" x="133.6784" y="823.2091">&#171;struct&#187;</text><text fill="#000000" font-family="Verdana" font-size="14" lengthAdjust="spacing" textLength="101.2061" x="108.1477" y="839.8038">console.Writer</text><line style="stroke:#000000;stroke-width:1;" x1="28.03" x2="261.9714" y1="847.7432" y2="847.7432"/><ellipse cx="38.03" cy="861.7506" fill="#FFFFFF" rx="3" ry="3" style="stroke:#000000;stroke-width:1;"/><text fill="#000000" font-family="Verdana" font-size="14" lengthAdjust="spacing" textLength="211.9414" x="45.03" y="865.8184">Write(ctx, msg) : Result[Unit]</text><line style="stroke:#000000;stroke-width:1;" x1="28.03" x2="261.9714" y1="872.7579" y2="872.7579"/><text fill="#000000" font-family="Verdana" font-size="14" lengthAdjust="spacing" textLength="177.3379" x="33.03" y="890.8331">Concrete implementation</text><text fill="#000000" font-family="Verdana" font-size="14" lengthAdjust="spacing" textLength="97.9453" x="33.03" y="907.8477">of output port</text></g><!--class Port--><g class="entity" data-entity="Port" data-source-line="16" data-uid="ent0005" id="entity_Port"><rect fill="#FFFFFF" height="125.6572" rx="2.5" ry="2.5" style="stroke:#000000;stroke-width:1;" width="235.9414" x="329.03" y="1155.1646"/><ellipse cx="371.4768" cy="1175.9639" fill="#FFFFFF" rx="9" ry="9" style="stroke:#000000;stroke-width:1;"/><path d="M373.9499,1182.107 Q373.3689,1182.4058 372.7297,1182.5552 Q372.0905,1182.7046 371.385,1182.7046 Q368.8781,1182.7046 367.5583,1181.0528 Q366.2385,1179.4009 366.2385,1176.2798 Q366.2385,1173.1504 367.5583,1171.4986 Q368.8781,1169.8467 371.385,1169.8467 Q372.0905,1169.8467 372.738,1169.9962 Q373.3855,1170.1456 373.9499,1170.4444 L373.9499,1173.1671 Q373.3191,1172.586 372.7256,1172.3162 Q372.1321,1172.0464 371.5012,1172.0464 Q370.1565,1172.0464 369.4717,1173.1131 Q368.7868,1174.1797 368.7868,1176.2798 Q368.7868,1178.3716 369.4717,1179.4383 Q370.1565,1180.5049 371.5012,1180.5049 Q372.1321,1180.5049 372.7256,1180.2352 Q373.3191,1179.9654 373.9499,1179.3843 Z " fill="#000000"/><text fill="#000000" font-family="Verdana" font-size="12" font-style="italic" lengthAdjust="spacing" textLength="132.4512" x="394.5251" y="1172.2291">&#171;interface constraint&#187;</text><text fill="#000000" font-family="Verdana" font-size="14" lengthAdjust="spacing" textLength="143.5479" x="388.9768" y="1188.8238">outbound.WriterPort</text><line style="stroke:#000000;stroke-width:1;" x1="330.03" x2="563.9714" y1="1196.7632" y2="1196.7632"/><ellipse cx="340.03" cy="1210.7706" fill="#FFFFFF" rx="3" ry="3" style="stroke:#000000;stroke-width:1;"/><text fill="#000000" font-family="Verdana" font-size="14" lengthAdjust="spacing" textLength="211.9414" x="347.03" y="1214.8384">Write(ctx, msg) : Result[Unit]</text><line style="stroke:#000000;stroke-width:1;" x1="330.03" x2="563.9714" y1="1221.7779" y2="1221.7779"/><text fill="#000000" font-family="Verdana" font-size="14" font-weight="bold" lengthAdjust="spacing" textLength="124.373" x="335.03" y="1239.8531">Type Constraint</text><text fill="#000000" font-family="Verdana" font-size="14" lengthAdjust="spacing" textLength="181.9316" x="335.03" y="1256.8677">Defines required behavior</text><text fill="#000000" font-family="Verdana" font-size="14" lengthAdjust="spacing" textLength="153.9111" x="335.03" y="1273.8824">for generic parameter</text></g><!--class UC--><g class="entity" data-entity="UC" data-source-line="24" data-uid="ent0006" id="entity_UC"><rect fill="#FFFFFF" height="142.6719" rx="2.5" ry="2.5" style="stroke:#000000;stroke-width:1;" width="275.4229" x="319.29" y="789.1346"/><ellipse cx="360.1494" cy="809.9339" fill="#FFFFFF" rx="9" ry="9" style="stroke:#000000;stroke-width:1;"/><path d="M362.6225,816.077 Q362.0415,816.3758 361.4023,816.5252 Q360.7631,816.6746 360.0576,816.6746 Q357.5507,816.6746 356.2309,815.0228 Q354.9111,813.3709 354.9111,810.2498 Q354.9111,807.1204 356.2309,805.4686 Q357.5507,803.8167 360.0576,803.8167 Q360.7631,803.8167 361.4106,803.9662 Q362.0581,804.1156 362.6225,804.4144 L362.6225,807.1371 Q361.9917,806.556 361.3982,806.2862 Q360.8046,806.0164 360.1738,806.0164 Q358.8291,806.0164 358.1442,807.0831 Q357.4594,808.1497 357.4594,810.2498 Q357.4594,812.3416 358.1442,813.4083 Q358.8291,814.4749 360.1738,814.4749 Q360.8046,814.4749 361.3982,814.2052 Q361.9917,813.9354 362.6225,813.3543 Z " fill="#000000"/><text fill="#000000" font-family="Verdana" font-size="12" font-style="italic" lengthAdjust="spacing" textLength="98.3789" x="421.562" y="806.1991">&#171;generic struct&#187;</text><text fill="#000000" font-family="Verdana" font-size="14" lengthAdjust="spacing" textLength="186.2041" x="377.6494" y="822.7938">usecase.GreetUseCase[W]</text><line style="stroke:#000000;stroke-width:1;" x1="320.29" x2="593.7129" y1="830.7332" y2="830.7332"/><rect fill="none" height="6" style="stroke:#000000;stroke-width:1;" width="6" x="327.29" y="841.7406"/><text fill="#000000" font-family="Verdana" font-size="14" lengthAdjust="spacing" textLength="71.1484" x="337.29" y="848.8084">writer : W</text><ellipse cx="330.29" cy="861.7552" fill="#FFFFFF" rx="3" ry="3" style="stroke:#000000;stroke-width:1;"/><text fill="#000000" font-family="Verdana" font-size="14" lengthAdjust="spacing" textLength="229.9131" x="337.29" y="865.8231">Execute(ctx, cmd) : Result[Unit]</text><line style="stroke:#000000;stroke-width:1;" x1="320.29" x2="593.7129" y1="872.7625" y2="872.7625"/><text fill="#000000" font-family="Verdana" font-size="14" font-weight="bold" lengthAdjust="spacing" textLength="135.5293" x="325.29" y="890.8377">Generic Use Case</text><text fill="#000000" font-family="Verdana" font-size="14" lengthAdjust="spacing" textLength="199.1445" x="325.29" y="907.8524">W constrained by WriterPort</text><text fill="#000000" font-family="Verdana" font-size="14" lengthAdjust="spacing" textLength="263.4229" x="325.29" y="924.867">Concrete type known at compile time</text></g><!--class Desktop--><g class="entity" data-entity="Desktop" data-source-line="35" data-uid="ent0008" id="entity_Desktop"><rect fill="#FFFFFF" height="125.6572" rx="2.5" ry="2.5" style="stroke:#000000;stroke-width:1;" width="214.0293" x="193.99" y="463.8146"/><ellipse cx="226.282" cy="484.6139" fill="#FFFFFF" rx="9" ry="9" style="stroke:#000000;stroke-width:1;"/><path d="M228.7551,490.757 Q228.1741,491.0558 227.5349,491.2052 Q226.8958,491.3546 226.1902,491.3546 Q223.6834,491.3546 222.3635,489.7028 Q221.0437,488.0509 221.0437,484.9298 Q221.0437,481.8004 222.3635,480.1486 Q223.6834,478.4967 226.1902,478.4967 Q226.8958,478.4967 227.5432,478.6462 Q228.1907,478.7956 228.7551,479.0944 L228.7551,481.8171 Q228.1243,481.236 227.5308,480.9662 Q226.9373,480.6964 226.3064,480.6964 Q224.9617,480.6964 224.2769,481.7631 Q223.5921,482.8297 223.5921,484.9298 Q223.5921,487.0216 224.2769,488.0883 Q224.9617,489.1549 226.3064,489.1549 Q226.9373,489.1549 227.5308,488.8852 Q228.1243,488.6154 228.7551,488.0343 Z " fill="#000000"/><text fill="#000000" font-family="Verdana" font-size="12" font-style="italic" lengthAdjust="spacing" textLength="116.5195" x="255.8884" y="480.8791">&#171;composition root&#187;</text><text fill="#000000" font-family="Verdana" font-size="14" lengthAdjust="spacing" textLength="143.1582" x="242.5691" y="497.4738">api/adapter/desktop</text><line style="stroke:#000000;stroke-width:1;" x1="194.99" x2="407.0193" y1="505.4132" y2="505.4132"/><ellipse cx="204.99" cy="519.4206" fill="#FFFFFF" rx="3" ry="3" style="stroke:#000000;stroke-width:1;"/><text fill="#000000" font-family="Verdana" font-size="14" lengthAdjust="spacing" textLength="179.9834" x="211.99" y="523.4884">NewGreeter() : GreetPort</text><line style="stroke:#000000;stroke-width:1;" x1="194.99" x2="407.0193" y1="530.4279" y2="530.4279"/><text fill="#000000" font-family="Verdana" font-size="14" font-weight="bold" lengthAdjust="spacing" textLength="139.1318" x="199.99" y="548.5031">Composition Root</text><text fill="#000000" font-family="Verdana" font-size="14" lengthAdjust="spacing" textLength="174.6377" x="199.99" y="565.5177">Instantiates generic with</text><text fill="#000000" font-family="Verdana" font-size="14" lengthAdjust="spacing" textLength="202.0293" x="199.99" y="582.5324">concrete console.Writer type</text></g><!--class Facade--><g class="entity" data-entity="Facade" data-source-line="43" data-uid="ent0009" id="entity_Facade"><rect fill="#FFFFFF" height="142.6719" rx="2.5" ry="2.5" style="stroke:#000000;stroke-width:1;" width="221.2207" x="190.39" y="121.4746"/><ellipse cx="258.0472" cy="142.2739" fill="#FFFFFF" rx="9" ry="9" style="stroke:#000000;stroke-width:1;"/><path d="M260.5204,148.417 Q259.9393,148.7158 259.3002,148.8652 Q258.661,149.0146 257.9554,149.0146 Q255.4486,149.0146 254.1288,147.3628 Q252.8089,145.7109 252.8089,142.5898 Q252.8089,139.4604 254.1288,137.8086 Q255.4486,136.1567 257.9554,136.1567 Q258.661,136.1567 259.3085,136.3062 Q259.9559,136.4556 260.5204,136.7544 L260.5204,139.4771 Q259.8895,138.896 259.296,138.6262 Q258.7025,138.3564 258.0716,138.3564 Q256.7269,138.3564 256.0421,139.4231 Q255.3573,140.4897 255.3573,142.5898 Q255.3573,144.6816 256.0421,145.7483 Q256.7269,146.8149 258.0716,146.8149 Q258.7025,146.8149 259.296,146.5452 Q259.8895,146.2754 260.5204,145.6943 Z " fill="#000000"/><text fill="#000000" font-family="Verdana" font-size="12" font-style="italic" lengthAdjust="spacing" textLength="82.4063" x="273.5472" y="138.5391">&#171;thin facade&#187;</text><text fill="#000000" font-family="Verdana" font-size="14" lengthAdjust="spacing" textLength="20.9727" x="304.264" y="155.1338">api</text><line style="stroke:#000000;stroke-width:1;" x1="191.39" x2="410.6107" y1="163.0732" y2="163.0732"/><text fill="#000000" font-family="Verdana" font-size="14" lengthAdjust="spacing" textLength="86.3242" x="196.39" y="181.1484">Type aliases</text><text fill="#000000" font-family="Verdana" font-size="14" lengthAdjust="spacing" textLength="77.0615" x="196.39" y="198.1631">Re-exports</text><line style="stroke:#000000;stroke-width:1;" x1="191.39" x2="410.6107" y1="205.1025" y2="205.1025"/><text fill="#000000" font-family="Verdana" font-size="14" font-weight="bold" lengthAdjust="spacing" textLength="107.748" x="196.39" y="223.1777">Public Facade</text><text fill="#000000" font-family="Verdana" font-size="14" lengthAdjust="spacing" textLength="209.2207" x="196.39" y="240.1924">Re-exports domain/app types</text><text fill="#000000" font-family="Verdana" font-size="14" lengthAdjust="spacing" textLength="178.7119" x="196.39" y="257.207">Provides desktop adapter</text></g><g class="entity" data-entity="GMN15" data-source-line="61" data-uid="ent0016" id="entity_GMN15"><path d="M444,324.1546 L444,522.9746 L408.4,526.9746 L444,530.9746 L444,729.1375 A0,0 0 0 0 444,729.1375 L920,729.1375 A0,0 0 0 0 920,729.1375 L920,334.1546 L910,324.1546 L444,324.1546 A0,0 0 0 0 444,324.1546" fill="#CCFFCC" style="stroke:#000000;stroke-width:1;"/><path d="M910,324.1546 L910,334.1546 L920,334.1546 L910,324.1546" fill="#CCFFCC" style="stroke:#000000;stroke-width:1;"/><text fill="#000000" font-family="Verdana" font-size="13" font-weight="bold" lengthAdjust="spacing" textLength="217.3945" x="450" y="342.2244">desktop.NewGreeter() Wiring</text><text fill="#000000" font-family="Verdana" font-size="13" lengthAdjust="spacing" textLength="455" x="450" y="358.0238">&#9552;&#9552;&#9552;&#9552;&#9552;&#9552;&#9552;&#9552;&#9552;&#9552;&#9552;&#9552;&#9552;&#9552;&#9552;&#9552;&#9552;&#9552;&#9552;&#9552;&#9552;&#9552;&#9552;&#9552;&#9552;&#9552;&#9552;&#9552;&#9552;&#9552;&#9552;&#9552;&#9552;&#9552;&#9552;</text><text fill="#000000" font-family="Verdana" font-size="13" lengthAdjust="spacing" textLength="4.5703" x="450" y="373.8231">&#160;</text><text fill="#000000" font-family="Verdana" font-size="13" lengthAdjust="spacing" textLength="40.7837" x="450" y="389.6224">```go</text><text fill="#000000" font-family="Verdana" font-size="13" lengthAdjust="spacing" textLength="232.7241" x="450" y="405.4217">// Located in: api/adapter/desktop/</text><text fill="#000000" font-family="Verdana" font-size="13" lengthAdjust="spacing" textLength="88.5181" x="450" y="421.221">// desktop.go</text><text fill="#000000" font-family="Verdana" font-size="13" lengthAdjust="spacing" textLength="4.5703" x="450" y="437.0203">&#160;</text><text fill="#000000" font-family="Verdana" font-size="13" lengthAdjust="spacing" textLength="110.0176" x="450" y="452.8196">package desktop</text><text fill="#000000" font-family="Verdana" font-size="13" lengthAdjust="spacing" textLength="4.5703" x="450" y="468.619">&#160;</text><text fill="#000000" font-family="Verdana" font-size="13" lengthAdjust="spacing" textLength="53.3457" x="450" y="484.4183">import (</text><text fill="#000000" font-family="Verdana" font-size="13" lengthAdjust="spacing" textLength="311.0098" x="468.2813" y="500.2176">"github.com/.../infrastructure/adapter/console"</text><text fill="#000000" font-family="Verdana" font-size="13" lengthAdjust="spacing" textLength="239.5796" x="468.2813" y="516.0169">"github.com/.../application/usecase"</text><text fill="#000000" font-family="Verdana" font-size="13" lengthAdjust="spacing" textLength="5.9033" x="450" y="531.8162">)</text><text fill="#000000" font-family="Verdana" font-size="13" lengthAdjust="spacing" textLength="4.5703" x="450" y="547.6155">&#160;</text><text fill="#000000" font-family="Verdana" font-size="13" lengthAdjust="spacing" textLength="257.8101" x="450" y="563.4149">// NewGreeter creates a GreetPort with</text><text fill="#000000" font-family="Verdana" font-size="13" lengthAdjust="spacing" textLength="217.8389" x="450" y="579.2142">// console.Writer statically bound</text><text fill="#000000" font-family="Verdana" font-size="13" lengthAdjust="spacing" textLength="258.9082" x="450" y="595.0135">func NewGreeter() inbound.GreetPort {</text><text fill="#000000" font-family="Verdana" font-size="13" lengthAdjust="spacing" textLength="197.7422" x="468.2813" y="610.8128">writer := console.NewWriter()</text><text fill="#000000" font-family="Verdana" font-size="13" lengthAdjust="spacing" textLength="273.5649" x="468.2813" y="626.6121">// Generic instantiated with concrete type</text><text fill="#000000" font-family="Verdana" font-size="13" lengthAdjust="spacing" textLength="385.3599" x="468.2813" y="642.4114">return usecase.NewGreetUseCase[*console.Writer](writer)</text><text fill="#000000" font-family="Verdana" font-size="13" lengthAdjust="spacing" textLength="8.252" x="450" y="658.2108">}</text><text fill="#000000" font-family="Verdana" font-size="13" lengthAdjust="spacing" textLength="24.7939" x="450" y="674.0101">```</text><text fill="#000000" font-family="Verdana" font-size="13" lengthAdjust="spacing" textLength="4.5703" x="450" y="689.8094">&#160;</text><text fill="#000000" font-family="Verdana" font-size="13" font-weight="bold" lengthAdjust="spacing" textLength="32.3477" x="450" y="705.6087">Key:</text><text fill="#000000" font-family="Verdana" font-size="13" lengthAdjust="spacing" textLength="222.8027" x="486.918" y="705.6087">Type parameter [*console.Writer]</text><text fill="#000000" font-family="Verdana" font-size="13" lengthAdjust="spacing" textLength="234.3936" x="450" y="721.408">binds concrete type at compile time</text></g><g class="entity" data-entity="GMN18" data-source-line="89" data-uid="ent0019" id="entity_GMN18"><path d="M627,991.8046 L627,1444.1855 L1103,1444.1855 L1103,1001.8046 L1093,991.8046 L627,991.8046" fill="#FFFFFF" style="stroke:#000000;stroke-width:1;"/><path d="M1093,991.8046 L1093,1001.8046 L1103,1001.8046 L1093,991.8046" fill="#FFFFFF" style="stroke:#000000;stroke-width:1;"/><text fill="#000000" font-family="Verdana" font-size="13" font-weight="bold" lengthAdjust="spacing" textLength="201.9063" x="633" y="1009.8744">Generic Use Case Definition</text><text fill="#000000" font-family="Verdana" font-size="13" lengthAdjust="spacing" textLength="455" x="633" y="1025.6738">&#9552;&#9552;&#9552;&#9552;&#9552;&#9552;&#9552;&#9552;&#9552;&#9552;&#9552;&#9552;&#9552;&#9552;&#9552;&#9552;&#9552;&#9552;&#9552;&#9552;&#9552;&#9552;&#9552;&#9552;&#9552;&#9552;&#9552;&#9552;&#9552;&#9552;&#9552;&#9552;&#9552;&#9552;&#9552;</text><text fill="#000000" font-family="Verdana" font-size="13" lengthAdjust="spacing" textLength="4.5703" x="633" y="1041.4731">&#160;</text><text fill="#000000" font-family="Verdana" font-size="13" lengthAdjust="spacing" textLength="40.7837" x="633" y="1057.2724">```go</text><text fill="#000000" font-family="Verdana" font-size="13" lengthAdjust="spacing" textLength="110.4365" x="633" y="1073.0717">package usecase</text><text fill="#000000" font-family="Verdana" font-size="13" lengthAdjust="spacing" textLength="4.5703" x="633" y="1088.871">&#160;</text><text fill="#000000" font-family="Verdana" font-size="13" lengthAdjust="spacing" textLength="277.8813" x="633" y="1104.6703">// W is constrained by WriterPort interface</text><text fill="#000000" font-family="Verdana" font-size="13" lengthAdjust="spacing" textLength="342.3862" x="633" y="1120.4696">type GreetUseCase[W outbound.WriterPort] struct {</text><text fill="#000000" font-family="Verdana" font-size="13" lengthAdjust="spacing" textLength="55.5928" x="651.2813" y="1136.269">writer W</text><text fill="#000000" font-family="Verdana" font-size="13" lengthAdjust="spacing" textLength="8.252" x="633" y="1152.0683">}</text><text fill="#000000" font-family="Verdana" font-size="13" lengthAdjust="spacing" textLength="4.5703" x="633" y="1167.8676">&#160;</text><text fill="#000000" font-family="Verdana" font-size="13" lengthAdjust="spacing" textLength="320.5757" x="633" y="1183.6669">func NewGreetUseCase[W outbound.WriterPort](</text><text fill="#000000" font-family="Verdana" font-size="13" lengthAdjust="spacing" textLength="32.792" x="651.2813" y="1199.4662">w W,</text><text fill="#000000" font-family="Verdana" font-size="13" lengthAdjust="spacing" textLength="147.894" x="633" y="1215.2655">) *GreetUseCase[W] {</text><text fill="#000000" font-family="Verdana" font-size="13" lengthAdjust="spacing" textLength="246.5493" x="651.2813" y="1231.0649">return &amp;GreetUseCase[W]{writer: w}</text><text fill="#000000" font-family="Verdana" font-size="13" lengthAdjust="spacing" textLength="8.252" x="633" y="1246.8642">}</text><text fill="#000000" font-family="Verdana" font-size="13" lengthAdjust="spacing" textLength="4.5703" x="633" y="1262.6635">&#160;</text><text fill="#000000" font-family="Verdana" font-size="13" lengthAdjust="spacing" textLength="250.3389" x="633" y="1278.4628">func (uc *GreetUseCase[W]) Execute(</text><text fill="#000000" font-family="Verdana" font-size="13" lengthAdjust="spacing" textLength="133.0659" x="651.2813" y="1294.2621">ctx context.Context,</text><text fill="#000000" font-family="Verdana" font-size="13" lengthAdjust="spacing" textLength="208.2603" x="651.2813" y="1310.0614">cmd command.GreetCommand,</text><text fill="#000000" font-family="Verdana" font-size="13" lengthAdjust="spacing" textLength="198.8848" x="633" y="1325.8608">) domerr.Result[model.Unit] {</text><text fill="#000000" font-family="Verdana" font-size="13" lengthAdjust="spacing" textLength="270.2578" x="651.2813" y="1341.6601">// uc.writer calls are statically dispatched</text><text fill="#000000" font-family="Verdana" font-size="13" lengthAdjust="spacing" textLength="210.6724" x="651.2813" y="1357.4594">// Compiler knows exact type W</text><text fill="#000000" font-family="Verdana" font-size="13" lengthAdjust="spacing" textLength="8.252" x="633" y="1373.2587">}</text><text fill="#000000" font-family="Verdana" font-size="13" lengthAdjust="spacing" textLength="24.7939" x="633" y="1389.058">```</text><text fill="#000000" font-family="Verdana" font-size="13" lengthAdjust="spacing" textLength="4.5703" x="633" y="1404.8573">&#160;</text><text fill="#000000" font-family="Verdana" font-size="13" font-weight="bold" lengthAdjust="spacing" textLength="32.3477" x="633" y="1420.6567">Key:</text><text fill="#000000" font-family="Verdana" font-size="13" lengthAdjust="spacing" textLength="226.8018" x="669.918" y="1420.6567">Generic struct with type constraint</text><text fill="#000000" font-family="Verdana" font-size="13" lengthAdjust="spacing" textLength="263.2246" x="633" y="1436.456">enables compile-time method resolution</text></g><g class="entity" data-entity="GMN21" data-source-line="120" data-uid="ent0022" id="entity_GMN21"><path d="M209,1504.1846 L209,1766.9737 A0,0 0 0 0 209,1766.9737 L685,1766.9737 A0,0 0 0 0 685,1766.9737 L685,1514.1846 L675,1504.1846 L451,1504.1846 L447,1280.9646 L443,1504.1846 L209,1504.1846 A0,0 0 0 0 209,1504.1846" fill="#FFFFFF" style="stroke:#000000;stroke-width:1;"/><path d="M675,1504.1846 L675,1514.1846 L685,1514.1846 L675,1504.1846" fill="#FFFFFF" style="stroke:#000000;stroke-width:1;"/><text fill="#000000" font-family="Verdana" font-size="13" font-weight="bold" lengthAdjust="spacing" textLength="208.603" x="215" y="1522.2544">Interface as Type Constraint</text><text fill="#000000" font-family="Verdana" font-size="13" lengthAdjust="spacing" textLength="455" x="215" y="1538.0538">&#9552;&#9552;&#9552;&#9552;&#9552;&#9552;&#9552;&#9552;&#9552;&#9552;&#9552;&#9552;&#9552;&#9552;&#9552;&#9552;&#9552;&#9552;&#9552;&#9552;&#9552;&#9552;&#9552;&#9552;&#9552;&#9552;&#9552;&#9552;&#9552;&#9552;&#9552;&#9552;&#9552;&#9552;&#9552;</text><text fill="#000000" font-family="Verdana" font-size="13" lengthAdjust="spacing" textLength="4.5703" x="215" y="1553.8531">&#160;</text><text fill="#000000" font-family="Verdana" font-size="13" lengthAdjust="spacing" textLength="40.7837" x="215" y="1569.6524">```go</text><text fill="#000000" font-family="Verdana" font-size="13" lengthAdjust="spacing" textLength="120.377" x="215" y="1585.4517">package outbound</text><text fill="#000000" font-family="Verdana" font-size="13" lengthAdjust="spacing" textLength="4.5703" x="215" y="1601.251">&#160;</text><text fill="#000000" font-family="Verdana" font-size="13" lengthAdjust="spacing" textLength="252.0146" x="215" y="1617.0503">// WriterPort serves as type constraint</text><text fill="#000000" font-family="Verdana" font-size="13" lengthAdjust="spacing" textLength="166.0674" x="215" y="1632.8496">// for generic parameters</text><text fill="#000000" font-family="Verdana" font-size="13" lengthAdjust="spacing" textLength="174.5098" x="215" y="1648.649">type WriterPort interface {</text><text fill="#000000" font-family="Verdana" font-size="13" lengthAdjust="spacing" textLength="253.7031" x="233.2813" y="1664.4483">Write(ctx context.Context, msg string)</text><text fill="#000000" font-family="Verdana" font-size="13" lengthAdjust="spacing" textLength="175.5889" x="251.5625" y="1680.2476">domerr.Result[model.Unit]</text><text fill="#000000" font-family="Verdana" font-size="13" lengthAdjust="spacing" textLength="8.252" x="215" y="1696.0469">}</text><text fill="#000000" font-family="Verdana" font-size="13" lengthAdjust="spacing" textLength="24.7939" x="215" y="1711.8462">```</text><text fill="#000000" font-family="Verdana" font-size="13" lengthAdjust="spacing" textLength="4.5703" x="215" y="1727.6455">&#160;</text><text fill="#000000" font-family="Verdana" font-size="13" font-weight="bold" lengthAdjust="spacing" textLength="32.3477" x="215" y="1743.4449">Key:</text><text fill="#000000" font-family="Verdana" font-size="13" lengthAdjust="spacing" textLength="187.9287" x="251.918" y="1743.4449">Interface used as constraint,</text><text fill="#000000" font-family="Verdana" font-size="13" lengthAdjust="spacing" textLength="162.2397" x="215" y="1759.2442">not for dynamic dispatch</text></g><!--link CW to Port--><g class="link" data-entity-1="CW" data-entity-2="Port" data-source-line="54" data-uid="lnk10" id="link_CW_Port"><path codeLine="54" d="M235.99,915.1546 C235.99,1015.3046 235.99,1217.9746 235.99,1217.9746 C235.99,1217.9746 262.44,1217.9746 310.54,1217.9746" fill="none" id="CW-to-Port" style="stroke:#000000;stroke-width:1;stroke-dasharray:7,7;"/><polygon fill="none" points="328.54,1217.9746,310.54,1211.9746,310.54,1223.9746,328.54,1217.9746" style="stroke:#000000;stroke-width:1;"/><text fill="#000000" font-family="Verdana" font-size="13" lengthAdjust="spacing" textLength="122.3257" x="112.99" y="1109.9144">satisfies constraint</text></g><!--link UC to Port--><g class="link" data-entity-1="UC" data-entity-2="Port" data-source-line="55" data-uid="lnk11" id="link_UC_Port"><path codeLine="55" d="M447,943.9646 C447,1009.0646 447,1086.3046 447,1148.7046" fill="none" id="UC-Port" style="stroke:#000000;stroke-width:1;"/><polygon fill="none" points="447,931.9646,443,937.9646,447,943.9646,451,937.9646,447,931.9646" style="stroke:#000000;stroke-width:1;"/><polygon fill="#000000" points="447,1154.7046,451,1145.7046,447,1149.7046,443,1145.7046,447,1154.7046" style="stroke:#000000;stroke-width:1;"/><text fill="#000000" font-family="Verdana" font-size="13" lengthAdjust="spacing" textLength="118.7202" x="328" y="1040.4044">type parameter W</text></g><!--link Desktop to CW--><g class="link" data-entity-1="Desktop" data-entity-2="CW" data-source-line="56" data-uid="lnk12" id="link_Desktop_CW"><path codeLine="56" d="M228.48,589.8246 C228.48,652.2046 228.48,740.6046 228.48,799.8346" fill="none" id="Desktop-to-CW" style="stroke:#000000;stroke-width:1;"/><polygon fill="#000000" points="228.48,805.8346,232.48,796.8346,228.48,800.8346,224.48,796.8346,228.48,805.8346" style="stroke:#000000;stroke-width:1;"/><text fill="#000000" font-family="Verdana" font-size="13" lengthAdjust="spacing" textLength="107.9863" x="120.48" y="694.8944">instantiates with</text></g><!--link Desktop to UC--><g class="link" data-entity-1="Desktop" data-entity-2="UC" data-source-line="57" data-uid="lnk13" id="link_Desktop_UC"><path codeLine="57" d="M363.65,589.8246 C363.65,646.5346 363.65,723.7046 363.65,782.8546" fill="none" id="Desktop-to-UC" style="stroke:#000000;stroke-width:1;"/><polygon fill="#000000" points="363.65,788.8546,367.65,779.8546,363.65,783.8546,359.65,779.8546,363.65,788.8546" style="stroke:#000000;stroke-width:1;"/><text fill="#000000" font-family="Verdana" font-size="13" lengthAdjust="spacing" textLength="75.8608" x="287.65" y="686.4144">instantiates</text></g><!--link Facade to Desktop--><g class="link" data-entity-1="Facade" data-entity-2="Desktop" data-source-line="58" data-uid="lnk14" id="link_Facade_Desktop"><path codeLine="58" d="M301,264.4246 C301,323.6246 301,400.8746 301,457.5846" fill="none" id="Facade-to-Desktop" style="stroke:#000000;stroke-width:1;"/><polygon fill="#000000" points="301,463.5846,305,454.5846,301,458.5846,297,454.5846,301,463.5846" style="stroke:#000000;stroke-width:1;"/><text fill="#000000" font-family="Verdana" font-size="13" lengthAdjust="spacing" textLength="55.415" x="245" y="361.0744">provides</text></g><!--link UC to GMN18--><g class="link" data-entity-1="UC" data-entity-2="GMN18" data-source-line="89" data-uid="lnk20" id="link_UC_GMN18"><path d="M579.84,932.1546 C579.84,994.1846 579.84,1073.9746 579.84,1073.9746 C579.84,1073.9746 598.65,1073.9746 626.61,1073.9746" fill="none" id="UC-GMN18" style="stroke:#000000;stroke-width:1;stroke-dasharray:7,7;"/></g><g class="legend" data-source-line="138"><rect fill="none" height="486.4102" rx="7.5" ry="7.5" style="stroke:#000000;stroke-width:1;" width="556" x="535" y="1777.9737"/><text fill="#000000" font-family="Verdana" font-size="14" font-weight="bold" lengthAdjust="spacing" textLength="208.7422" x="540" y="1797.0489">Go Generic Static Dispatch</text><text fill="#000000" font-family="Verdana" font-size="14" lengthAdjust="spacing" textLength="546" x="540" y="1814.0635">&#9552;&#9552;&#9552;&#9552;&#9552;&#9552;&#9552;&#9552;&#9552;&#9552;&#9552;&#9552;&#9552;&#9552;&#9552;&#9552;&#9552;&#9552;&#9552;&#9552;&#9552;&#9552;&#9552;&#9552;&#9552;&#9552;&#9552;&#9552;&#9552;&#9552;&#9552;&#9552;&#9552;&#9552;&#9552;&#9552;&#9552;&#9552;&#9552;</text><text fill="#000000" font-family="Verdana" font-size="14" lengthAdjust="spacing" textLength="4.9219" x="540" y="1831.0782">&#160;</text><text fill="#000000" font-family="Verdana" font-size="14" font-weight="bold" lengthAdjust="spacing" textLength="250.7764" x="540" y="1848.0928">Three Go Dispatch Mechanisms:</text><text fill="#000000" font-family="Verdana" font-size="14" lengthAdjust="spacing" textLength="13.9932" x="540" y="1865.1075">1.</text><text fill="#000000" font-family="Verdana" font-size="14" font-weight="bold" lengthAdjust="spacing" textLength="110.5234" x="558.915" y="1865.1075">Static (direct)</text><text fill="#000000" font-family="Verdana" font-size="14" lengthAdjust="spacing" textLength="108.7598" x="674.3604" y="1865.1075">- No indirection</text><text fill="#000000" font-family="Verdana" font-size="14" lengthAdjust="spacing" textLength="13.9932" x="540" y="1882.1221">2.</text><text fill="#000000" font-family="Verdana" font-size="14" font-weight="bold" lengthAdjust="spacing" textLength="123.416" x="558.915" y="1882.1221">Static (generic)</text><text fill="#000000" font-family="Verdana" font-size="14" lengthAdjust="spacing" textLength="169.791" x="687.2529" y="1882.1221">- Compile-time bound &#10003;</text><text fill="#000000" font-family="Verdana" font-size="14" lengthAdjust="spacing" textLength="13.9932" x="540" y="1899.1368">3.</text><text fill="#000000" font-family="Verdana" font-size="14" font-weight="bold" lengthAdjust="spacing" textLength="158.0879" x="558.915" y="1899.1368">Dynamic (interface)</text><text fill="#000000" font-family="Verdana" font-size="14" lengthAdjust="spacing" textLength="118.084" x="721.9248" y="1899.1368">- Runtime vtable</text><text fill="#000000" font-family="Verdana" font-size="14" lengthAdjust="spacing" textLength="4.9219" x="540" y="1916.1514">&#160;</text><text fill="#000000" font-family="Verdana" font-size="14" font-weight="bold" lengthAdjust="spacing" textLength="263.8672" x="540" y="1933.1661">Why Generics for Static Dispatch:</text><text fill="#000000" font-family="Verdana" font-size="14" lengthAdjust="spacing" textLength="275.9805" x="540" y="1950.1807">&#8226; Concrete type known at compile time</text><text fill="#000000" font-family="Verdana" font-size="14" lengthAdjust="spacing" textLength="246.8047" x="540" y="1967.1954">&#8226; No interface indirection overhead</text><text fill="#000000" font-family="Verdana" font-size="14" lengthAdjust="spacing" textLength="241.2334" x="540" y="1984.21">&#8226; Compiler can inline method calls</text><text fill="#000000" font-family="Verdana" font-size="14" lengthAdjust="spacing" textLength="169.1348" x="540" y="2001.2246">&#8226; Type safety preserved</text><text fill="#000000" font-family="Verdana" font-size="14" lengthAdjust="spacing" textLength="4.9219" x="540" y="2018.2393">&#160;</text><text fill="#000000" font-family="Verdana" font-size="14" font-weight="bold" lengthAdjust="spacing" textLength="154.5332" x="540" y="2035.2539">Comparison to Ada:</text><text fill="#000000" font-family="Verdana" font-size="14" lengthAdjust="spacing" textLength="546" x="540" y="2052.2686">&#9552;&#9552;&#9552;&#9552;&#9552;&#9552;&#9552;&#9552;&#9552;&#9552;&#9552;&#9552;&#9552;&#9552;&#9552;&#9552;&#9552;&#9552;&#9552;&#9552;&#9552;&#9552;&#9552;&#9552;&#9552;&#9552;&#9552;&#9552;&#9552;&#9552;&#9552;&#9552;&#9552;&#9552;&#9552;&#9552;&#9552;&#9552;&#9552;</text><text fill="#000000" font-family="Verdana" font-size="14" lengthAdjust="spacing" textLength="270.0264" x="540" y="2069.2832">Ada: generic with procedure Write(...)</text><text fill="#000000" font-family="Verdana" font-size="14" lengthAdjust="spacing" textLength="273.4648" x="540" y="2086.2979">Go:  type GreetUseCase[W WriterPort]</text><text fill="#000000" font-family="Verdana" font-size="14" lengthAdjust="spacing" textLength="4.9219" x="540" y="2103.3125">&#160;</text><text fill="#000000" font-family="Verdana" font-size="14" lengthAdjust="spacing" textLength="323.4766" x="540" y="2120.3272">Ada: package My_UC is new Use_Case(Write)</text><text fill="#000000" font-family="Verdana" font-size="14" lengthAdjust="spacing" textLength="311.541" x="540" y="2137.3418">Go:  NewGreetUseCase[*console.Writer](w)</text><text fill="#000000" font-family="Verdana" font-size="14" lengthAdjust="spacing" textLength="4.9219" x="540" y="2154.3565">&#160;</text><text fill="#000000" font-family="Verdana" font-size="14" font-weight="bold" lengthAdjust="spacing" textLength="158.0059" x="540" y="2171.3711">Library Architecture</text><text fill="#000000" font-family="Verdana" font-size="14" lengthAdjust="spacing" textLength="546" x="540" y="2188.3858">&#9552;&#9552;&#9552;&#9552;&#9552;&#9552;&#9552;&#9552;&#9552;&#9552;&#9552;&#9552;&#9552;&#9552;&#9552;&#9552;&#9552;&#9552;&#9552;&#9552;&#9552;&#9552;&#9552;&#9552;&#9552;&#9552;&#9552;&#9552;&#9552;&#9552;&#9552;&#9552;&#9552;&#9552;&#9552;&#9552;&#9552;&#9552;&#9552;</text><text fill="#000000" font-family="Verdana" font-size="14" lengthAdjust="spacing" textLength="220.7393" x="540" y="2205.4004">&#8226; api: Type re-exports (facade)</text><text fill="#000000" font-family="Verdana" font-size="14" lengthAdjust="spacing" textLength="312.6826" x="540" y="2222.4151">&#8226; api/adapter/desktop: Generic instantiation</text><text fill="#000000" font-family="Verdana" font-size="14" lengthAdjust="spacing" textLength="292.9404" x="540" y="2239.4297">&#8226; application/usecase: Generic definitions</text><text fill="#000000" font-family="Verdana" font-size="14" lengthAdjust="spacing" textLength="278.5645" x="540" y="2256.4444">&#8226; Consumer: Imports api, uses desktop</text></g><!--SRC=[nLTVRzis47_NfxYbm6PxiOsjsB0PNO5MYODWQH5a3VpG1IqjqJOHYTH8AexH5TX7633iRK_xQFqaEnv9INQSRjX34mImBTqTx-xtkp_ypAvuoQ4gc929kHQoOfgLK0Z9xQRYeBHTgIInmXOSJhZaMcJ3vypm77wop8eCZeIfcCrMFyjKbPKe-F2LG8lFXSo5N8AGSAAWToRcckbDFqagbbsp9OU3KxdGp5XTPxRM7CxOXki3U7JyxVJnT0hl4e2iOCR0GQQaKGKVpRImJeGPI6Vmv8dNVVgKP06-fFUzpDuUGccMVPZ01JTrOLzVIc6lI6Ouf8zKoKnpoq6KLO7nInUAalHEBK3LjgejL1WyFdgVlEzu_Qog2f6HUEloTzDlZh_lkemMvggMUV3v72sHt-uBUYuaFbomZ8EBpMfC_l-AOp1uvK1A6oE30Jq_uWi4q83clzH28rPplc8tGcbwkr0QbXvA8BWn4ve2RGEe3SyGvT69vjnU6fxYZzUpAmhYCiKGee4T48Ph2XXzdlbWZczvLiTmiZB_U3Y1OO0dWZion3Dhy-I2sK2RrcqyYRFNKgqbC8jAH4YmICYxG9wVDW1EfyVFqwCkWAmIOvQp2ayPvznSMrLHx4V-EoR06LT6416qKXtyNl8rfOthdekMlZUkDg6c7VqBr0-XdcASJ5h1BE8NaxmMTaLlinZeTarGt3i8OWJayPHbBEVei5rXBIxeL-ChqOSL0bDjwC457_9RHtopxUrvFKVQ1sF1rLOMSbKYDcDMLUIALpxNwaPWyY0a44928nHVe8M2AiciH6KIBEhHwDUdlaWcOF2LMGZKRuiaGUwfuR2H8RmR3YFd8Zx373c0ScXpWZsearFAvQuOcjqMIqBQea1Kc40LeaeIgH08BPOhwvf6b7YKfjDfcYOkQo7mqHOZPa9ZOwGSVlZpzq_pxtZnzktRfSBFyHZE57Omh2GX9x27wMCl5Rr7BNmG2oSyTO-mUpeOUeGsmC4IKrlFHrWPuz5eD1PR3Ruv953tu1ujrZROSUX2JhIVUAVQL09M0Y7AsXABbOA2EnLYQ5gnejW0TMOKMjGoWoreXFHTkxNtBdWPszeFZLrKzAPx_I23XyR-rQ5IJZwrbHjArVtXxrfBYBqskXBRxM0xXAkUTw9FzKDu9iIo7_bcCXZuMcvhuOuwoivnA9jjL-xqIIvpSCmE_9uhQrNf27xfERtRelsmeJxsS9oEv0of35oPWJ3tJmvefZ1AKogsXnti6U9NOTxjyc8Mc-yMfpvkAfRD6cQ7Zk0ms1cspI619v_ll7_d3v_0-ltMyRqwksEh3t4G1viuZrrgBB-rezH_7iPNPUueKR9O2Qd_uRt4Li-r7eKPNggS5oEQv8sxcFaw6uNCk9B34iK5hrE1UTWPUTwgXErHq_Wsm6yPffbWcTr3-9Ej5SIN6IbqvWK0bsnUq13nswaZEM29h5IEYSK2gMdrkvVsON8F1gVDqePJTT_UzQ3CZmoBr6zfRhY-SLtIx4aEIkxT1aqiYNtbqW3TBAftcEGMLuSB3hhO7TtVlTov1-4svRMxSR3kAk3OY52H__b6iXBzZxpge5dmfVj1OzhtBzKGP-S6ysb1t0KKT_aL5fkxBKM7u0NFLamAKve9EVVL2CM2rxqSD_lCzZ5DGtYfmDstt0D_Z_cwAndWzQ9fjmw8Cl3XhpzGvR5JEGgPx3LeUwsBMfB2ZNNLvFsThJOnbOPWsCcdz_d3Rt__n_tSIL8W4VHEIA1kk5vnbZSMGxV8c4GvTr-DHKqT9uXHcHgsmCiiBcwSIY7ttZiBJ0k3jgs2PpcRF23-G0vixVjkqSnuxgx6livmENArTA8c-yTLPxGaqM3i3YysRt35nMae-TfDxZTEfqSQZSr_Np_wFdFXBW_FTBR2DxJTFMZk7DAunauytBgzblJyTQVVokokkfCzAvkl8AzmPnTj5V9cxp4jpKrTkebyMde7yCH3rxkQEv3hJBub9Vy0]--></g></svg>